<svg width="268" height="268" viewBox="0 0 268 268" fill="none" xmlns="http://www.w3.org/2000/svg">
<g clip-path="url(#clip0_346_813)">
<path d="M60.243 64.7171L80.3283 66.9473L66.9466 187.459L46.8613 185.229L60.243 64.7171ZM90.3709 68.0625L100.414 69.1776L87.0319 189.689L76.9893 188.574L90.3709 68.0625ZM110.456 70.2928L140.584 73.6382L127.202 194.15L97.0746 190.804L110.456 70.2928ZM150.627 74.7533L160.669 75.8684L147.288 196.38L137.245 195.265L150.627 74.7533ZM180.755 78.0987L200.84 80.329L187.458 200.841L167.373 198.61L180.755 78.0987ZM210.883 81.4441L220.925 82.5593L207.544 203.071L197.501 201.956L210.883 81.4441ZM42.388 42.4015L37.9274 82.5721L17.8421 80.3418L22.3027 40.1712C22.8942 34.8443 25.5776 29.9705 29.7626 26.622C33.9476 23.2736 39.2913 21.7247 44.6183 22.3162L84.7888 26.7768L82.5586 46.8621L42.388 42.4015ZM245.471 44.619C250.798 45.2105 255.672 47.8939 259.02 52.0789C262.369 56.2639 263.918 61.6076 263.326 66.9345L258.866 107.105L238.78 104.875L243.241 64.7043L203.07 60.2437L205.301 40.1584L245.471 44.619ZM29.0063 162.913L24.5458 203.084L64.7164 207.544L62.4861 227.63L22.3155 223.169C16.9885 222.578 12.1148 219.894 8.76629 215.709C5.41782 211.524 3.86898 206.18 4.46049 200.854L8.92104 160.683L29.0063 162.913ZM225.399 225.387L229.859 185.216L249.944 187.446L245.484 227.617C244.892 232.944 242.209 237.818 238.024 241.166C233.839 244.515 228.495 246.063 223.168 245.472L182.998 241.011L185.228 220.926L225.399 225.387Z" fill="#6B7280"/>
</g>
<defs>
<clipPath id="clip0_346_813">
<rect width="242.505" height="242.505" fill="white" transform="translate(26.7633) rotate(6.33619)"/>
</clipPath>
</defs>
</svg>
