<svg width="242" height="204" viewBox="0 0 242 204" fill="none" xmlns="http://www.w3.org/2000/svg">
<path d="M31.2359 203.337C19.8068 202.312 11.1546 197.103 5.27915 187.71C-0.596257 178.318 -1.56734 168.358 2.3659 157.831L30.689 82.5517C24.802 78.0181 20.1546 72.1653 16.7469 64.9931C13.3392 57.8209 12.0589 49.9813 12.9062 41.4741C14.16 28.998 19.7097 18.7193 29.5553 10.6378C39.401 2.55644 50.6098 -0.920384 63.1818 0.207374L154.614 8.40926C163.186 9.17818 169.302 13.3508 172.961 20.927C176.62 28.5032 176.165 35.9011 171.595 43.1206L144.178 86.4378C141.703 90.0305 138.587 92.8028 134.832 94.7548C131.076 96.7067 127.011 97.4865 122.638 97.0942L99.4937 95.0181L95.2109 106.078L98.6396 106.386C101.878 106.676 104.485 108.009 106.46 110.383C108.436 112.758 109.259 115.547 108.929 118.753L106.649 141.437C106.326 144.65 104.958 147.247 102.545 149.228C100.132 151.209 97.3102 152.051 94.0804 151.753L78.6511 150.369L66.8878 181.358C64.0516 188.542 59.3528 194.178 52.7915 198.267C46.2302 202.355 39.045 204.045 31.2359 203.337ZM33.5155 180.653C36.1823 180.892 38.5441 180.341 40.6009 179C42.6578 177.658 44.1906 175.793 45.1995 173.404L75.7784 92.8907L52.0631 90.7633L23.797 165.476C22.4836 168.982 22.8224 172.305 24.8134 175.443C26.8044 178.582 29.7051 180.319 33.5155 180.653ZM56.3428 68.2589L124.917 74.4103L152.335 31.0931L60.9021 22.8912C54.6161 22.3273 49.0134 24.0678 44.094 28.1126C39.1747 32.1575 36.3981 37.2948 35.7643 43.5246C35.1306 49.7544 36.8338 55.2974 40.874 60.1536C44.9143 65.0097 50.0705 67.7115 56.3428 68.2589ZM232.991 23.1648L206.108 32.4835C203.917 33.2407 201.771 33.0978 199.67 32.0548C197.568 31.0117 196.142 29.4037 195.392 27.2307C194.641 25.0576 194.76 22.9244 195.746 20.8309C196.733 18.7374 198.319 17.3041 200.503 16.5311L227.387 7.21244C229.577 6.45524 231.772 6.60638 233.972 7.66585C236.172 8.72532 237.644 10.3337 238.389 12.4909C239.133 14.6481 238.968 16.7811 237.895 18.8897C236.822 20.9984 235.188 22.4234 232.991 23.1648ZM192.44 99.6363C190.439 98.5032 189.077 96.7598 188.352 94.4059C187.628 92.0521 187.846 89.8783 189.008 87.8843C190.188 85.7014 191.959 84.3344 194.321 83.7833C196.683 83.2322 198.959 83.5318 201.15 84.682L225.669 98.8978C227.669 100.031 228.941 101.72 229.484 103.966C230.027 106.212 229.718 108.329 228.558 110.315C227.397 112.301 225.68 113.627 223.407 114.293C221.133 114.959 218.993 114.718 216.987 113.569L192.44 99.6363ZM232.061 69.7164L203.488 67.1533C201.012 66.9311 199.047 65.9423 197.594 64.1869C196.14 62.4314 195.533 60.3284 195.771 57.8779C196.01 55.4273 197.025 53.4699 198.818 52.0057C200.61 50.5414 202.737 49.9196 205.198 50.1404L233.771 52.7035C236.247 52.9256 238.216 53.9147 239.677 55.6709C241.138 57.427 241.741 59.5297 241.488 61.9788C241.234 64.428 240.218 66.3892 238.44 67.8624C236.662 69.3356 234.536 69.9536 232.061 69.7164Z" fill="#6B7280"/>
</svg>
