<svg width="288" height="223" viewBox="0 0 288 223" fill="none" xmlns="http://www.w3.org/2000/svg">
<g clip-path="url(#clip0_346_858)">
<path d="M121.101 145.661C121.891 141.441 122.316 137.462 122.377 133.724C122.437 129.986 122.082 126.3 121.312 122.665C120.542 119.03 118.934 116.001 116.487 113.577C114.04 111.153 110.873 109.616 106.985 108.966C100.754 113.083 93.8335 114.506 86.223 113.234C78.6124 111.962 72.6283 108.383 68.2705 102.496C64.3825 101.846 60.8493 102.263 57.6709 103.747C54.4925 105.231 51.8819 107.555 49.839 110.72C47.7962 113.885 46.1243 117.232 44.8235 120.763C43.5226 124.293 42.4771 128.169 41.6869 132.389C40.8821 136.688 41.5009 140.559 43.5433 144.004C45.5857 147.448 48.4268 149.475 52.0667 150.083L104.927 158.917C108.567 159.525 111.971 158.543 115.14 155.969C118.309 153.396 120.296 149.96 121.101 145.661ZM114.964 90.9555C116.135 84.7031 114.813 79.0014 111 73.8505C107.187 68.6996 101.972 65.5712 95.354 64.4652C88.7361 63.3592 82.7012 64.6074 77.2493 68.2099C71.7973 71.8124 68.486 76.7399 67.3154 82.9923C66.1447 89.2447 67.4659 94.9464 71.279 100.097C75.092 105.248 80.3075 108.377 86.9254 109.483C93.5432 110.589 99.5781 109.34 105.03 105.738C110.482 102.135 113.793 97.2079 114.964 90.9555ZM231.491 168.463L232.896 160.96C233.101 159.865 232.897 158.904 232.284 158.077C231.671 157.249 230.786 156.738 229.627 156.545L142.272 141.945C141.114 141.752 140.096 141.945 139.22 142.523C138.344 143.102 137.804 143.939 137.599 145.033L136.194 152.536C135.989 153.63 136.193 154.591 136.806 155.419C137.419 156.247 138.304 156.758 139.462 156.951L226.818 171.55C227.976 171.744 228.993 171.551 229.869 170.972C230.746 170.393 231.286 169.557 231.491 168.463ZM189.462 130.488L190.866 122.985C191.071 121.891 190.867 120.93 190.254 120.102C189.642 119.274 188.756 118.763 187.598 118.57L147.891 111.934C146.733 111.74 145.716 111.933 144.839 112.512C143.963 113.091 143.423 113.927 143.218 115.022L141.813 122.524C141.608 123.619 141.812 124.58 142.425 125.407C143.038 126.235 143.923 126.746 145.081 126.94L184.788 133.576C185.947 133.769 186.964 133.576 187.84 132.997C188.716 132.418 189.257 131.582 189.462 130.488ZM237.11 138.451L238.515 130.948C238.72 129.854 238.516 128.893 237.903 128.065C237.29 127.237 236.405 126.726 235.247 126.533L211.422 122.551C210.264 122.358 209.247 122.55 208.371 123.129C207.495 123.708 206.954 124.545 206.749 125.639L205.344 133.142C205.14 134.236 205.344 135.197 205.956 136.025C206.569 136.853 207.455 137.364 208.613 137.557L232.437 141.539C233.595 141.732 234.612 141.54 235.488 140.961C236.365 140.382 236.905 139.545 237.11 138.451ZM242.729 108.439L244.134 100.936C244.339 99.8422 244.135 98.8812 243.522 98.0534C242.909 97.2255 242.024 96.7149 240.866 96.5213L153.51 81.9221C152.352 81.7285 151.335 81.9213 150.458 82.5002C149.582 83.0792 149.042 83.9158 148.837 85.0099L147.432 92.5129C147.227 93.607 147.431 94.568 148.044 95.3958C148.657 96.2237 149.542 96.7344 150.7 96.9279L238.056 111.527C239.214 111.721 240.231 111.528 241.108 110.949C241.984 110.37 242.524 109.533 242.729 108.439ZM43.9783 32.666L266.338 69.8277L268.445 58.5733C268.65 57.4791 268.446 56.5181 267.834 55.6903C267.221 54.8625 266.335 54.3518 265.177 54.1583L50.7586 18.3238C49.6004 18.1303 48.5833 18.323 47.7071 18.902C46.8309 19.4809 46.2903 20.3175 46.0855 21.4117L43.9783 32.666ZM284.328 61.2277L257.638 203.783C256.672 208.941 253.901 213.032 249.325 216.056C244.75 219.079 239.732 220.135 234.272 219.222L19.8536 183.388C14.3938 182.475 10.0639 179.858 6.86361 175.535C3.66338 171.211 2.54615 166.471 3.51193 161.313L30.2026 18.7573C31.1684 13.599 33.9391 9.50813 38.5149 6.48461C43.0906 3.46109 48.1084 2.40555 53.5681 3.318L267.987 39.1525C273.446 40.0649 277.776 42.6827 280.977 47.0057C284.177 51.3288 285.294 56.0695 284.328 61.2277Z" fill="#5C6573"/>
</g>
<defs>
<clipPath id="clip0_346_858">
<rect width="257.65" height="183.199" fill="white" transform="matrix(0.986321 0.164838 -0.184033 0.98292 33.7145 0)"/>
</clipPath>
</defs>
</svg>
